<svg id="SvgjsSvg1001" width="1809.2448425292969" height="754.7525978088379" xmlns="http://www.w3.org/2000/svg" version="1.1" xmlns:xlink="http://www.w3.org/1999/xlink" xmlns:svgjs="http://svgjs.com/svgjs"><defs id="SvgjsDefs1002"><pattern id="SvgjsPattern1018" x="0" y="0" width="77" height="65" patternUnits="userSpaceOnUse"><image id="SvgjsImage1019" xlink:href="https://www.processon.com/public/static/assets/images/designer/network/pc.svg" width="77" height="65" preserveAspectRatio="none" crossOrigin="anonymous" x="0" y="0"></image></pattern><pattern id="SvgjsPattern1026" x="0" y="0" width="40" height="76" patternUnits="userSpaceOnUse"><image id="SvgjsImage1027" xlink:href="https://www.processon.com/public/static/assets/images/designer/network/iphone.svg" width="40" height="76" preserveAspectRatio="none" crossOrigin="anonymous" x="0" y="0"></image></pattern><marker id="SvgjsMarker1040" markerWidth="14" markerHeight="10" refX="10" refY="5" viewBox="0 0 14 10" orient="auto" markerUnits="userSpaceOnUse" stroke-dasharray="0,0"><path id="SvgjsPath1041" d="M0,0 L14,5 L0,10 L0,0" fill="#323232" stroke="#323232" stroke-width="1"></path></marker><marker id="SvgjsMarker1044" markerWidth="14" markerHeight="10" refX="10" refY="5" viewBox="0 0 14 10" orient="auto" markerUnits="userSpaceOnUse" stroke-dasharray="0,0"><path id="SvgjsPath1045" d="M0,0 L14,5 L0,10 L0,0" fill="#323232" stroke="#323232" stroke-width="1"></path></marker><marker id="SvgjsMarker1052" markerWidth="14" markerHeight="10" refX="10" refY="5" viewBox="0 0 14 10" orient="auto" markerUnits="userSpaceOnUse" stroke-dasharray="0,0"><path id="SvgjsPath1053" d="M0,0 L14,5 L0,10 L0,0" fill="#323232" stroke="#323232" stroke-width="1"></path></marker><pattern id="SvgjsPattern1056" x="0" y="0" width="75" height="75" patternUnits="userSpaceOnUse"><image id="SvgjsImage1057" xlink:href="https://www.processon.com/public/static/assets/images/designer/network_aliyun/Security/WAF.svg" width="75" height="75" preserveAspectRatio="none" crossOrigin="anonymous" x="0" y="0"></image></pattern><pattern id="SvgjsPattern1064" x="0" y="0" width="75" height="75" patternUnits="userSpaceOnUse"><image id="SvgjsImage1065" xlink:href="https://www.processon.com/public/static/assets/images/designer/network_aliyun/Security/SAS.svg" width="75" height="75" preserveAspectRatio="none" crossOrigin="anonymous" x="0" y="0"></image></pattern><pattern id="SvgjsPattern1072" x="0" y="0" width="75" height="75" patternUnits="userSpaceOnUse"><image id="SvgjsImage1073" xlink:href="https://www.processon.com/public/static/assets/images/designer/network_aliyun/ManagementandMonitoring/CloudMonitoring.svg" width="75" height="75" preserveAspectRatio="none" crossOrigin="anonymous" x="0" y="0"></image></pattern><marker id="SvgjsMarker1086" markerWidth="14" markerHeight="10" refX="10" refY="5" viewBox="0 0 14 10" orient="auto" markerUnits="userSpaceOnUse" stroke-dasharray="0,0"><path id="SvgjsPath1087" d="M0,0 L14,5 L0,10 L0,0" fill="#323232" stroke="#323232" stroke-width="1"></path></marker><pattern id="SvgjsPattern1090" x="0" y="0" width="74" height="75" patternUnits="userSpaceOnUse"><image id="SvgjsImage1091" xlink:href="https://iconsapi.com/6164fd5be4b06f7969107335.svg" width="74" height="75" preserveAspectRatio="none" crossOrigin="anonymous" x="0" y="0"></image></pattern><pattern id="SvgjsPattern1100" x="0" y="0" width="75" height="75" patternUnits="userSpaceOnUse"><image id="SvgjsImage1101" xlink:href="https://www.processon.com/public/static/assets/images/designer/network_aliyun/Network/SLB.svg" width="75" height="75" preserveAspectRatio="none" crossOrigin="anonymous" x="0" y="0"></image></pattern><marker id="SvgjsMarker1108" markerWidth="14" markerHeight="10" refX="10" refY="5" viewBox="0 0 14 10" orient="auto" markerUnits="userSpaceOnUse" stroke-dasharray="0,0"><path id="SvgjsPath1109" d="M0,0 L14,5 L0,10 L0,0" fill="#323232" stroke="#323232" stroke-width="1"></path></marker><pattern id="SvgjsPattern1122" x="0" y="0" width="75" height="75" patternUnits="userSpaceOnUse"><image id="SvgjsImage1123" xlink:href="https://www.processon.com/public/static/assets/images/designer/network_aliyun/ElasticCalculation/ECS.svg" width="75" height="75" preserveAspectRatio="none" crossOrigin="anonymous" x="0" y="0"></image></pattern><pattern id="SvgjsPattern1130" x="0" y="0" width="75" height="75" patternUnits="userSpaceOnUse"><image id="SvgjsImage1131" xlink:href="https://www.processon.com/public/static/assets/images/designer/network_aliyun/ElasticCalculation/ECS.svg" width="75" height="75" preserveAspectRatio="none" crossOrigin="anonymous" x="0" y="0"></image></pattern><pattern id="SvgjsPattern1138" x="0" y="0" width="75" height="75" patternUnits="userSpaceOnUse"><image id="SvgjsImage1139" xlink:href="https://www.processon.com/public/static/assets/images/designer/network_aliyun/ElasticCalculation/ECS.svg" width="75" height="75" preserveAspectRatio="none" crossOrigin="anonymous" x="0" y="0"></image></pattern><pattern id="SvgjsPattern1146" x="0" y="0" width="75" height="75" patternUnits="userSpaceOnUse"><image id="SvgjsImage1147" xlink:href="https://www.processon.com/public/static/assets/images/designer/network_aliyun/StorageandCDN/CDN.svg" width="75" height="75" preserveAspectRatio="none" crossOrigin="anonymous" x="0" y="0"></image></pattern><marker id="SvgjsMarker1154" markerWidth="14" markerHeight="10" refX="10" refY="5" viewBox="0 0 14 10" orient="auto" markerUnits="userSpaceOnUse" stroke-dasharray="0,0"><path id="SvgjsPath1155" d="M0,0 L14,5 L0,10 L0,0" fill="#323232" stroke="#323232" stroke-width="1"></path></marker><pattern id="SvgjsPattern1168" x="0" y="0" width="75" height="75" patternUnits="userSpaceOnUse"><image id="SvgjsImage1169" xlink:href="https://www.processon.com/public/static/assets/images/designer/network_aliyun/ElasticCalculation/ECS.svg" width="75" height="75" preserveAspectRatio="none" crossOrigin="anonymous" x="0" y="0"></image></pattern><pattern id="SvgjsPattern1176" x="0" y="0" width="75" height="75" patternUnits="userSpaceOnUse"><image id="SvgjsImage1177" xlink:href="https://www.processon.com/public/static/assets/images/designer/network_aliyun/ElasticCalculation/ECS.svg" width="75" height="75" preserveAspectRatio="none" crossOrigin="anonymous" x="0" y="0"></image></pattern><pattern id="SvgjsPattern1184" x="0" y="0" width="75" height="75" patternUnits="userSpaceOnUse"><image id="SvgjsImage1185" xlink:href="https://www.processon.com/public/static/assets/images/designer/network_aliyun/ElasticCalculation/ECS.svg" width="75" height="75" preserveAspectRatio="none" crossOrigin="anonymous" x="0" y="0"></image></pattern><marker id="SvgjsMarker1192" markerWidth="14" markerHeight="10" refX="10" refY="5" viewBox="0 0 14 10" orient="auto" markerUnits="userSpaceOnUse" stroke-dasharray="0,0"><path id="SvgjsPath1193" d="M0,0 L14,5 L0,10 L0,0" fill="#323232" stroke="#323232" stroke-width="1"></path></marker><pattern id="SvgjsPattern1196" x="0" y="0" width="75" height="75" patternUnits="userSpaceOnUse"><image id="SvgjsImage1197" xlink:href="https://www.processon.com/public/static/assets/images/designer/network_aliyun/StorageandCDN/OSS.svg" width="75" height="75" preserveAspectRatio="none" crossOrigin="anonymous" x="0" y="0"></image></pattern><pattern id="SvgjsPattern1204" x="0" y="0" width="75" height="75" patternUnits="userSpaceOnUse"><image id="SvgjsImage1205" xlink:href="https://www.processon.com/public/static/assets/images/designer/network_aliyun/Database/RDS.svg" width="75" height="75" preserveAspectRatio="none" crossOrigin="anonymous" x="0" y="0"></image></pattern><pattern id="SvgjsPattern1212" x="0" y="0" width="75" height="75" patternUnits="userSpaceOnUse"><image id="SvgjsImage1213" xlink:href="https://www.processon.com/public/static/assets/images/designer/network_aliyun/Database/OCS.svg" width="75" height="75" preserveAspectRatio="none" crossOrigin="anonymous" x="0" y="0"></image></pattern><marker id="SvgjsMarker1226" markerWidth="14" markerHeight="10" refX="10" refY="5" viewBox="0 0 14 10" orient="auto" markerUnits="userSpaceOnUse" stroke-dasharray="0,0"><path id="SvgjsPath1227" d="M0,0 L14,5 L0,10 L0,0" fill="#323232" stroke="#323232" stroke-width="1"></path></marker><marker id="SvgjsMarker1230" markerWidth="14" markerHeight="10" refX="10" refY="5" viewBox="0 0 14 10" orient="auto" markerUnits="userSpaceOnUse" stroke-dasharray="0,0"><path id="SvgjsPath1231" d="M0,0 L14,5 L0,10 L0,0" fill="#323232" stroke="#323232" stroke-width="1"></path></marker></defs><g id="SvgjsG1008" transform="translate(755.5026168823242,48.51041030883789)"><path id="SvgjsPath1009" d="M 0 4Q 0 0 4 0L 1025 0Q 1029 0 1029 4L 1029 677Q 1029 681 1025 681L 4 681Q 0 681 0 677Z" stroke="rgba(33,41,48,1)" stroke-width="2" fill-opacity="1" fill="#ffffff"></path><g id="SvgjsG1010"><text id="SvgjsText1011" font-family="微软雅黑" text-anchor="middle" font-size="13px" width="1009px" fill="#323232" font-weight="400" align="middle" lineHeight="125%" anchor="middle" family="微软雅黑" size="13px" weight="400" font-style="" opacity="1" y="329.875" transform="rotate(0)"></text></g></g><g id="SvgjsG1012" transform="translate(1623.0026168823242,92.51041030883789)"><path id="SvgjsPath1013" d="M 0 4Q 0 0 4 0L 105.5 0Q 109.5 0 109.5 4L 109.5 539Q 109.5 543 105.5 543L 4 543Q 0 543 0 539Z" stroke="rgba(33,41,48,1)" stroke-width="2" fill-opacity="1" fill="#ffffff"></path><g id="SvgjsG1014"><text id="SvgjsText1015" font-family="微软雅黑" text-anchor="middle" font-size="13px" width="90px" fill="#323232" font-weight="400" align="middle" lineHeight="125%" anchor="middle" family="微软雅黑" size="13px" weight="400" font-style="" opacity="1" y="260.875" transform="rotate(0)"></text></g></g><g id="SvgjsG1016" transform="translate(25.00261688232422,443.5104103088379)"><path id="SvgjsPath1017" d="M 0 0L 77 0L 77 65L 0 65Z" stroke="none" fill="url(#SvgjsPattern1018)"></path><g id="SvgjsG1020"><text id="SvgjsText1021" font-family="微软雅黑" text-anchor="middle" font-size="13px" width="117px" fill="#323232" font-weight="400" align="middle" lineHeight="125%" anchor="middle" family="微软雅黑" size="13px" weight="400" font-style="" opacity="1" y="69.375" transform="rotate(0)"><tspan id="SvgjsTspan1022" dy="16" x="38.5"><tspan id="SvgjsTspan1023" style="text-decoration:;">pc</tspan></tspan></text></g></g><g id="SvgjsG1024" transform="translate(43.50261688232422,273.0104103088379)"><path id="SvgjsPath1025" d="M 0 0L 40 0L 40 76L 0 76Z" stroke="none" fill="url(#SvgjsPattern1026)"></path><g id="SvgjsG1028"><text id="SvgjsText1029" font-family="微软雅黑" text-anchor="middle" font-size="13px" width="80px" fill="#323232" font-weight="400" align="middle" lineHeight="125%" anchor="middle" family="微软雅黑" size="13px" weight="400" font-style="" opacity="1" y="80.375" transform="rotate(0)"><tspan id="SvgjsTspan1030" dy="16" x="20"><tspan id="SvgjsTspan1031" style="text-decoration:;">phone</tspan></tspan></text></g></g><g id="SvgjsG1032" transform="translate(275.5026168823242,354.0104103088379)"><path id="SvgjsPath1033" d="M 10.799999999999999 49C -9 35 3.6 24.5 8.1 21C 6.300000000000001 3.5 28.8 0 37.8 7C 45 -3.5 67.5 0 67.5 10.5C 85.5 7 92.7 21 85.5 38.5C 91.8 52.5 85.5 70 64.8 63C 60.300000000000004 72.10000000000001 42.3 72.10000000000001 37.8 63C 28.8 70 10.799999999999999 66.5 10.799999999999999 49Z" stroke="rgba(33,41,48,1)" stroke-width="2" fill-opacity="1" fill="#ffffff"></path><g id="SvgjsG1034"><text id="SvgjsText1035" font-family="微软雅黑" text-anchor="middle" font-size="13px" width="70px" fill="#323232" font-weight="400" align="middle" lineHeight="125%" anchor="middle" family="微软雅黑" size="13px" weight="400" font-style="" opacity="1" y="24.375" transform="rotate(0)"><tspan id="SvgjsTspan1036" dy="16" x="45"><tspan id="SvgjsTspan1037" style="text-decoration:;">internet</tspan></tspan></text></g></g><g id="SvgjsG1038"><path id="SvgjsPath1039" d="M83.50261688232422 311.0104103088379L179.50261688232422 311.0104103088379L179.50261688232422 389.0104103088379L271.9026168823242 389.0104103088379" stroke="#323232" stroke-width="2" fill="none" marker-end="url(#SvgjsMarker1040)"></path></g><g id="SvgjsG1042"><path id="SvgjsPath1043" d="M102.00261688232422 476.0104103088379L179.75261688232422 476.0104103088379L179.75261688232422 389.0104103088379L271.9026168823242 389.0104103088379" stroke="#323232" stroke-width="2" fill="none" marker-end="url(#SvgjsMarker1044)"></path></g><g id="SvgjsG1046" transform="translate(498.5026168823242,150.8854103088379)"><path id="SvgjsPath1047" d="M 0 4Q 0 0 4 0L 114 0Q 118 0 118 4L 118 472.25Q 118 476.25 114 476.25L 4 476.25Q 0 476.25 0 472.25Z" stroke="rgba(33,41,48,1)" stroke-width="2" fill-opacity="1" fill="#ffffff"></path><g id="SvgjsG1048"><text id="SvgjsText1049" font-family="微软雅黑" text-anchor="middle" font-size="13px" width="98px" fill="#323232" font-weight="400" align="middle" lineHeight="125%" anchor="middle" family="微软雅黑" size="13px" weight="400" font-style="" opacity="1" y="227.5" transform="rotate(0)"></text></g></g><g id="SvgjsG1050"><path id="SvgjsPath1051" d="M362.5026168823242 391.0104103088379L430.0026168823242 391.0104103088379L430.0026168823242 391.63437725098663L494.9026168823242 391.63437725098663" stroke="#323232" stroke-width="2" fill="none" marker-end="url(#SvgjsMarker1052)"></path></g><g id="SvgjsG1054" transform="translate(521.0026168823242,166.8854103088379)"><path id="SvgjsPath1055" d="M 0 0L 75 0L 75 75L 0 75Z" stroke="none" fill="url(#SvgjsPattern1056)"></path><g id="SvgjsG1058"><text id="SvgjsText1059" font-family="微软雅黑" text-anchor="middle" font-size="13px" width="115px" fill="#323232" font-weight="400" align="middle" lineHeight="125%" anchor="middle" family="微软雅黑" size="13px" weight="400" font-style="" opacity="1" y="79.375" transform="rotate(0)"><tspan id="SvgjsTspan1060" dy="16" x="37.5"><tspan id="SvgjsTspan1061" style="text-decoration:;">web应用防火墙</tspan></tspan></text></g></g><g id="SvgjsG1062" transform="translate(526.0026168823242,284.8854103088379)"><path id="SvgjsPath1063" d="M 0 0L 75 0L 75 75L 0 75Z" stroke="none" fill="url(#SvgjsPattern1064)"></path><g id="SvgjsG1066"><text id="SvgjsText1067" font-family="微软雅黑" text-anchor="middle" font-size="13px" width="115px" fill="#323232" font-weight="400" align="middle" lineHeight="125%" anchor="middle" family="微软雅黑" size="13px" weight="400" font-style="" opacity="1" y="79.375" transform="rotate(0)"><tspan id="SvgjsTspan1068" dy="16" x="37.5"><tspan id="SvgjsTspan1069" style="text-decoration:;">态势感知</tspan></tspan></text></g></g><g id="SvgjsG1070" transform="translate(526.0026168823242,402.8854103088379)"><path id="SvgjsPath1071" d="M 0 0L 75 0L 75 75L 0 75Z" stroke="none" fill="url(#SvgjsPattern1072)"></path><g id="SvgjsG1074"><text id="SvgjsText1075" font-family="微软雅黑" text-anchor="middle" font-size="13px" width="115px" fill="#323232" font-weight="400" align="middle" lineHeight="125%" anchor="middle" family="微软雅黑" size="13px" weight="400" font-style="" opacity="1" y="79.375" transform="rotate(0)"><tspan id="SvgjsTspan1076" dy="16" x="37.5"><tspan id="SvgjsTspan1077" style="text-decoration:;">云监控</tspan></tspan></text></g></g><g id="SvgjsG1078" transform="translate(798.5026168823242,25.01041030883789)"><path id="SvgjsPath1079" d="M 0 4Q 0 0 4 0L 92 0Q 96 0 96 4L 96 50Q 96 54 92 54L 4 54Q 0 54 0 50Z" stroke="rgba(33,41,48,1)" stroke-width="2" fill-opacity="1" fill="#dbf5f5"></path><g id="SvgjsG1080"><text id="SvgjsText1081" font-family="微软雅黑" text-anchor="middle" font-size="13px" width="76px" fill="#323232" font-weight="400" align="middle" lineHeight="125%" anchor="middle" family="微软雅黑" size="13px" weight="400" font-style="" opacity="1" y="16.375" transform="rotate(0)"><tspan id="SvgjsTspan1082" dy="16" x="48"><tspan id="SvgjsTspan1083" style="text-decoration:;">专有网络vpc</tspan></tspan></text></g></g><g id="SvgjsG1084"><path id="SvgjsPath1085" d="M617.5026168823242 389.0104103088379L707.5026168823242 389.0104103088379L707.5026168823242 389.0104103088379L794.9026168823242 389.0104103088379" stroke="#323232" stroke-width="2" fill="none" marker-end="url(#SvgjsMarker1086)"></path></g><g id="SvgjsG1088" transform="translate(798.5026168823242,351.5104103088379)"><path id="SvgjsPath1089" d="M 0 0L 74 0L 74 75L 0 75Z" stroke="none" fill="url(#SvgjsPattern1090)"></path></g><g id="SvgjsG1092" transform="translate(783.0026168823242,434.5104103088379)"><path id="SvgjsPath1093" d="M 0 0L 108 0L 108 25L 0 25Z" stroke="rgba(255,255,255,1)" stroke-width="2" fill="none"></path><g id="SvgjsG1094"><text id="SvgjsText1095" font-family="&quot;Comic Sans MS&quot;" text-anchor="middle" font-size="16px" width="88px" fill="#323232" font-weight="400" align="middle" lineHeight="125%" anchor="middle" family="&quot;Comic Sans MS&quot;" size="16px" weight="400" font-style="" opacity="1" y="-1.5" transform="rotate(0)"><tspan id="SvgjsTspan1096" dy="20" x="54"><tspan id="SvgjsTspan1097" style="text-decoration:;">nginx</tspan></tspan></text></g></g><g id="SvgjsG1098" transform="translate(960.0026168823242,351.5104103088379)"><path id="SvgjsPath1099" d="M 0 0L 75 0L 75 75L 0 75Z" stroke="none" fill="url(#SvgjsPattern1100)"></path><g id="SvgjsG1102"><text id="SvgjsText1103" font-family="微软雅黑" text-anchor="middle" font-size="13px" width="115px" fill="#323232" font-weight="400" align="middle" lineHeight="125%" anchor="middle" family="微软雅黑" size="13px" weight="400" font-style="" opacity="1" y="79.375" transform="rotate(0)"><tspan id="SvgjsTspan1104" dy="16" x="37.5"><tspan id="SvgjsTspan1105" style="text-decoration:;">slb</tspan></tspan></text></g></g><g id="SvgjsG1106"><path id="SvgjsPath1107" d="M873.5026168823242 389.0104103088379L916.2526168823242 389.0104103088379L916.2526168823242 389.0104103088379L957.4026168823243 389.0104103088379" stroke="#323232" stroke-width="2" fill="none" marker-end="url(#SvgjsMarker1108)"></path></g><g id="SvgjsG1110" transform="translate(1098.5026168823242,86.01041030883789)"><path id="SvgjsPath1111" d="M 0 4Q 0 0 4 0L 416 0Q 420 0 420 4L 420 197Q 420 201 416 201L 4 201Q 0 201 0 197Z" stroke="rgba(33,41,48,1)" stroke-width="2" fill-opacity="1" fill="#ffffff"></path><g id="SvgjsG1112"><text id="SvgjsText1113" font-family="微软雅黑" text-anchor="middle" font-size="13px" width="400px" fill="#323232" font-weight="400" align="middle" lineHeight="125%" anchor="middle" family="微软雅黑" size="13px" weight="400" font-style="" opacity="1" y="89.875" transform="rotate(0)"></text></g></g><g id="SvgjsG1114" transform="translate(1120.5026168823242,65.01041030883789)"><path id="SvgjsPath1115" d="M 0 4Q 0 0 4 0L 92 0Q 96 0 96 4L 96 50Q 96 54 92 54L 4 54Q 0 54 0 50Z" stroke="rgba(33,41,48,1)" stroke-width="2" fill-opacity="1" fill="#dbf5f5"></path><g id="SvgjsG1116"><text id="SvgjsText1117" font-family="微软雅黑" text-anchor="middle" font-size="13px" width="76px" fill="#323232" font-weight="400" align="middle" lineHeight="125%" anchor="middle" family="微软雅黑" size="13px" weight="400" font-style="" opacity="1" y="16.375" transform="rotate(0)"><tspan id="SvgjsTspan1118" dy="16" x="48"><tspan id="SvgjsTspan1119" style="text-decoration:;">k8s</tspan></tspan></text></g></g><g id="SvgjsG1120" transform="translate(1141.5026168823242,153.5104103088379)"><path id="SvgjsPath1121" d="M 0 0L 75 0L 75 75L 0 75Z" stroke="none" fill="url(#SvgjsPattern1122)"></path><g id="SvgjsG1124"><text id="SvgjsText1125" font-family="微软雅黑" text-anchor="middle" font-size="13px" width="115px" fill="#323232" font-weight="400" align="middle" lineHeight="125%" anchor="middle" family="微软雅黑" size="13px" weight="400" font-style="" opacity="1" y="79.375" transform="rotate(0)"><tspan id="SvgjsTspan1126" dy="16" x="37.5"><tspan id="SvgjsTspan1127" style="text-decoration:;">ecs1</tspan></tspan></text></g></g><g id="SvgjsG1128" transform="translate(1256.5026168823242,153.5104103088379)"><path id="SvgjsPath1129" d="M 0 0L 75 0L 75 75L 0 75Z" stroke="none" fill="url(#SvgjsPattern1130)"></path><g id="SvgjsG1132"><text id="SvgjsText1133" font-family="微软雅黑" text-anchor="middle" font-size="13px" width="115px" fill="#323232" font-weight="400" align="middle" lineHeight="125%" anchor="middle" family="微软雅黑" size="13px" weight="400" font-style="" opacity="1" y="79.375" transform="rotate(0)"><tspan id="SvgjsTspan1134" dy="16" x="37.5"><tspan id="SvgjsTspan1135" style="text-decoration:;">ecs2</tspan></tspan></text></g></g><g id="SvgjsG1136" transform="translate(1371.5026168823242,153.5104103088379)"><path id="SvgjsPath1137" d="M 0 0L 75 0L 75 75L 0 75Z" stroke="none" fill="url(#SvgjsPattern1138)"></path><g id="SvgjsG1140"><text id="SvgjsText1141" font-family="微软雅黑" text-anchor="middle" font-size="13px" width="115px" fill="#323232" font-weight="400" align="middle" lineHeight="125%" anchor="middle" family="微软雅黑" size="13px" weight="400" font-style="" opacity="1" y="79.375" transform="rotate(0)"><tspan id="SvgjsTspan1142" dy="16" x="37.5"><tspan id="SvgjsTspan1143" style="text-decoration:;">ecs3</tspan></tspan></text></g></g><g id="SvgjsG1144" transform="translate(526.0026168823242,520.8854103088379)"><path id="SvgjsPath1145" d="M 0 0L 75 0L 75 75L 0 75Z" stroke="none" fill="url(#SvgjsPattern1146)"></path><g id="SvgjsG1148"><text id="SvgjsText1149" font-family="&quot;Comic Sans MS&quot;" text-anchor="middle" font-size="18px" width="115px" fill="#323232" font-weight="400" align="middle" lineHeight="125%" anchor="middle" family="&quot;Comic Sans MS&quot;" size="18px" weight="400" font-style="" opacity="1" y="74.25" transform="rotate(0)"><tspan id="SvgjsTspan1150" dy="22" x="37.5"><tspan id="SvgjsTspan1151" style="text-decoration:;">CDN</tspan></tspan></text></g></g><g id="SvgjsG1152"><path id="SvgjsPath1153" d="M1035.0026168823242 389.0104103088379L1066.7526168823242 389.0104103088379L1066.7526168823242 186.5104103088379L1094.9026168823243 186.5104103088379" stroke="#323232" stroke-width="2" fill="none" marker-end="url(#SvgjsMarker1154)"></path></g><g id="SvgjsG1156" transform="translate(1098.5026168823242,482.5104103088379)"><path id="SvgjsPath1157" d="M 0 4Q 0 0 4 0L 416 0Q 420 0 420 4L 420 197Q 420 201 416 201L 4 201Q 0 201 0 197Z" stroke="rgba(33,41,48,1)" stroke-width="2" fill-opacity="1" fill="#ffffff"></path><g id="SvgjsG1158"><text id="SvgjsText1159" font-family="微软雅黑" text-anchor="middle" font-size="13px" width="400px" fill="#323232" font-weight="400" align="middle" lineHeight="125%" anchor="middle" family="微软雅黑" size="13px" weight="400" font-style="" opacity="1" y="89.875" transform="rotate(0)"></text></g></g><g id="SvgjsG1160" transform="translate(1134.5026168823242,459.5104103088379)"><path id="SvgjsPath1161" d="M 0 4Q 0 0 4 0L 92 0Q 96 0 96 4L 96 50Q 96 54 92 54L 4 54Q 0 54 0 50Z" stroke="rgba(33,41,48,1)" stroke-width="2" fill-opacity="1" fill="#dbf5f5"></path><g id="SvgjsG1162"><text id="SvgjsText1163" font-family="微软雅黑" text-anchor="middle" font-size="13px" width="76px" fill="#323232" font-weight="400" align="middle" lineHeight="125%" anchor="middle" family="微软雅黑" size="13px" weight="400" font-style="" opacity="1" y="16.375" transform="rotate(0)"><tspan id="SvgjsTspan1164" dy="16" x="48"><tspan id="SvgjsTspan1165" style="text-decoration:;">k8s</tspan></tspan></text></g></g><g id="SvgjsG1166" transform="translate(1155.5026168823242,548.0104103088379)"><path id="SvgjsPath1167" d="M 0 0L 75 0L 75 75L 0 75Z" stroke="none" fill="url(#SvgjsPattern1168)"></path><g id="SvgjsG1170"><text id="SvgjsText1171" font-family="微软雅黑" text-anchor="middle" font-size="13px" width="115px" fill="#323232" font-weight="400" align="middle" lineHeight="125%" anchor="middle" family="微软雅黑" size="13px" weight="400" font-style="" opacity="1" y="79.375" transform="rotate(0)"><tspan id="SvgjsTspan1172" dy="16" x="37.5"><tspan id="SvgjsTspan1173" style="text-decoration:;">ecs1</tspan></tspan></text></g></g><g id="SvgjsG1174" transform="translate(1270.5026168823242,548.0104103088379)"><path id="SvgjsPath1175" d="M 0 0L 75 0L 75 75L 0 75Z" stroke="none" fill="url(#SvgjsPattern1176)"></path><g id="SvgjsG1178"><text id="SvgjsText1179" font-family="微软雅黑" text-anchor="middle" font-size="13px" width="115px" fill="#323232" font-weight="400" align="middle" lineHeight="125%" anchor="middle" family="微软雅黑" size="13px" weight="400" font-style="" opacity="1" y="79.375" transform="rotate(0)"><tspan id="SvgjsTspan1180" dy="16" x="37.5"><tspan id="SvgjsTspan1181" style="text-decoration:;">ecs2</tspan></tspan></text></g></g><g id="SvgjsG1182" transform="translate(1385.5026168823242,548.0104103088379)"><path id="SvgjsPath1183" d="M 0 0L 75 0L 75 75L 0 75Z" stroke="none" fill="url(#SvgjsPattern1184)"></path><g id="SvgjsG1186"><text id="SvgjsText1187" font-family="微软雅黑" text-anchor="middle" font-size="13px" width="115px" fill="#323232" font-weight="400" align="middle" lineHeight="125%" anchor="middle" family="微软雅黑" size="13px" weight="400" font-style="" opacity="1" y="79.375" transform="rotate(0)"><tspan id="SvgjsTspan1188" dy="16" x="37.5"><tspan id="SvgjsTspan1189" style="text-decoration:;">ecs3</tspan></tspan></text></g></g><g id="SvgjsG1190"><path id="SvgjsPath1191" d="M1035.0026168823242 389.0104103088379L1066.7526168823242 389.0104103088379L1066.7526168823242 583.0104103088379L1094.9026168823243 583.0104103088379" stroke="#323232" stroke-width="2" fill="none" marker-end="url(#SvgjsMarker1192)"></path></g><g id="SvgjsG1194" transform="translate(1645.0026168823242,180.5104103088379)"><path id="SvgjsPath1195" d="M 0 0L 75 0L 75 75L 0 75Z" stroke="none" fill="url(#SvgjsPattern1196)"></path><g id="SvgjsG1198"><text id="SvgjsText1199" font-family="&quot;Comic Sans MS&quot;" text-anchor="middle" font-size="16px" width="115px" fill="#323232" font-weight="400" align="middle" lineHeight="125%" anchor="middle" family="&quot;Comic Sans MS&quot;" size="16px" weight="400" font-style="" opacity="1" y="76" transform="rotate(0)"><tspan id="SvgjsTspan1200" dy="20" x="37.5"><tspan id="SvgjsTspan1201" style="text-decoration:;">OSS</tspan></tspan></text></g></g><g id="SvgjsG1202" transform="translate(1645.0026168823242,333.5104103088379)"><path id="SvgjsPath1203" d="M 0 0L 75 0L 75 75L 0 75Z" stroke="none" fill="url(#SvgjsPattern1204)"></path><g id="SvgjsG1206"><text id="SvgjsText1207" font-family="&quot;Comic Sans MS&quot;" text-anchor="middle" font-size="17px" width="115px" fill="#323232" font-weight="400" align="middle" lineHeight="125%" anchor="middle" family="&quot;Comic Sans MS&quot;" size="17px" weight="400" font-style="" opacity="1" y="75.375" transform="rotate(0)"><tspan id="SvgjsTspan1208" dy="21" x="37.5"><tspan id="SvgjsTspan1209" style="text-decoration:;">RDS</tspan></tspan></text></g></g><g id="SvgjsG1210" transform="translate(1645.0026168823242,508.5104103088379)"><path id="SvgjsPath1211" d="M 0 0L 75 0L 75 75L 0 75Z" stroke="none" fill="url(#SvgjsPattern1212)"></path><g id="SvgjsG1214"><text id="SvgjsText1215" font-family="&quot;Comic Sans MS&quot;" text-anchor="middle" font-size="16px" width="115px" fill="#323232" font-weight="400" align="middle" lineHeight="125%" anchor="middle" family="&quot;Comic Sans MS&quot;" size="16px" weight="400" font-style="" opacity="1" y="76" transform="rotate(0)"><tspan id="SvgjsTspan1216" dy="20" x="37.5"><tspan id="SvgjsTspan1217" style="text-decoration:;">OCS</tspan></tspan></text></g></g><g id="SvgjsG1218" transform="translate(1618.0026168823242,99.51041030883789)"><path id="SvgjsPath1219" d="M 0 0L 108 0L 108 25L 0 25Z" stroke="rgba(255,255,255,1)" stroke-width="2" fill="none"></path><g id="SvgjsG1220"><text id="SvgjsText1221" font-family="&quot;Comic Sans MS&quot;" text-anchor="middle" font-size="16px" width="88px" fill="#323232" font-weight="400" align="middle" lineHeight="125%" anchor="middle" family="&quot;Comic Sans MS&quot;" size="16px" weight="400" font-style="" opacity="1" y="-1.5" transform="rotate(0)"><tspan id="SvgjsTspan1222" dy="20" x="54"><tspan id="SvgjsTspan1223" style="text-decoration:;">缓存与存储</tspan></tspan></text></g></g><g id="SvgjsG1224"><path id="SvgjsPath1225" d="M1519.5026168823242 186.5104103088379L1570.7526168823242 186.5104103088379L1570.7526168823242 364.0104103088379L1619.4026168823243 364.0104103088379" stroke="#323232" stroke-width="2" fill="none" marker-end="url(#SvgjsMarker1226)"></path></g><g id="SvgjsG1228"><path id="SvgjsPath1229" d="M1519.5026168823242 583.0104103088379L1570.7526168823242 583.0104103088379L1570.7526168823242 364.0104103088379L1619.4026168823243 364.0104103088379" stroke="#323232" stroke-width="2" fill="none" marker-end="url(#SvgjsMarker1230)"></path></g></svg>